<?xml version="1.0" encoding="UTF-8" standalone="no"?>
<!-- Created with Inkscape (http://www.inkscape.org/) -->

<svg
   width="109.36738mm"
   height="107.65711mm"
   viewBox="0 0 109.36738 107.65711"
   version="1.1"
   id="svg1"
   xmlns="http://www.w3.org/2000/svg"
   xmlns:svg="http://www.w3.org/2000/svg">
  <defs
     id="defs1" />
  <g
     id="layer1"
     transform="translate(1.2650599,-59.796101)">
    <g
       id="g28"
       transform="rotate(-120,52.190587,113.32415)">
      <path
         id="path28"
         d="M 76.858157,115.11583 96.521321,134.779 M 76.858157,114.23741 96.521321,94.574242 M 51.316313,114.23741 H 102.4 m -39.073495,22.55909 -7.197223,26.86039 m 7.957957,-27.2996 26.860385,7.19722 M 51.316317,114.23741 76.85816,158.47718 M 25.774477,113.35899 6.1113127,93.695819 M 25.774477,114.23741 6.1113127,133.90058 M 51.316321,114.23741 H 0.23263369 M 64.327471,94.683771 91.187858,87.486556 M 63.566737,94.244561 56.369516,67.384177 m -5.0532,46.853233 25.541845,-44.239772 M 39.306131,91.678315 46.503354,64.817931 M 38.545397,92.117525 11.685012,84.92031 m 39.631307,29.3171 -25.541843,-44.23977 m 12.530686,63.79341 -26.860387,7.19722 m 27.621121,-6.75801 7.197221,26.86039 m 5.053199,-46.85324 -25.541845,44.23977" />
    </g>
  </g>
</svg>
